# xmcd
#
# Track frame offsets:
#	150
#	16609
#	30888
#	47433
#	68150
#	85325
#	106293
#	119926
#	149034
#	173822
#	190157
#
# Disc length: 2829 seconds
#
# Revision: 1
# Processed by: cddbd v1.5.2PL0 Copyright (c) Steve Scherf et al.
# Submitted via: audiograbber 1.83.01
#
DISCID=8f0b0b0b
DTITLE=Andrea Schroeder - Void
DYEAR=2016
DGENRE=Pop Noir
TTITLE0=Void
TTITLE1=Black Sky
TTITLE2=Burden
TTITLE3=My Skin Is Like Fire
TTITLE4=Kingdom
TTITLE5=Little Girl
TTITLE6=Creatures
TTITLE7=Was Poe Afraid
TTITLE8=Drive Me Home
TTITLE9=Don't Wake Me
TTITLE10=Endless Sea
EXTD=
EXTT0=
EXTT1=
EXTT2=
EXTT3=
EXTT4=
EXTT5=
EXTT6=
EXTT7=
EXTT8=
EXTT9=
EXTT10=
PLAYORDER=
